<svg width="256" height="256" viewBox="0 0 256 256" fill="none" xmlns="http://www.w3.org/2000/svg">
<g clip-path="url(#clip0_1_2)">
<path d="M196 0H60C26.8629 0 0 26.8629 0 60V196C0 229.137 26.8629 256 60 256H196C229.137 256 256 229.137 256 196V60C256 26.8629 229.137 0 196 0Z" fill="#CB3837"/>
<g clip-path="url(#clip1_1_2)">
<path d="M6 88H250V168.571H128V182H73.7778V168.571H6V88ZM19.5556 155.143H46.6667V114.857H60.2222V155.143H73.7778V101.429H19.5556V155.143ZM87.3333 101.429V168.571H114.444V155.143H141.556V101.429H87.3333ZM114.444 114.857H128V141.714H114.444V114.857ZM155.111 101.429V155.143H182.222V114.857H195.778V155.143H209.333V114.857H222.889V155.143H236.444V101.429H155.111Z" fill="#CB3837"/>
<path d="M19.5555 155.143H46.6666V114.857H60.2222V155.143H73.7778V101.429H19.5555V155.143Z" fill="white"/>
<path d="M87.3333 101.429V168.571H114.444V155.143H141.556V101.429H87.3333ZM128 141.714H114.444V114.857H128V141.714Z" fill="white"/>
<path d="M155.111 101.429V155.143H182.222V114.857H195.778V155.143H209.333V114.857H222.889V155.143H236.444V101.429H155.111Z" fill="white"/>
</g>
</g>
<defs>
<clipPath id="clip0_1_2">
<rect width="256" height="256" fill="white"/>
</clipPath>
<clipPath id="clip1_1_2">
<rect width="244" height="94" fill="white" transform="translate(6 88)"/>
</clipPath>
</defs>
</svg>
